<svg width="512" height="512" viewBox="0 0 512 512" fill="none" xmlns="http://www.w3.org/2000/svg">
<rect width="512" height="512" fill="#000427"/>
<g clip-path="url(#clip0_587_2665)">
<path opacity="0.4" d="M258 452.434L37 324.979L258 197.524L479 324.979L258 452.434Z" fill="url(#paint0_radial_587_2665)"/>
<mask id="mask0_587_2665" style="mask-type:luminance" maskUnits="userSpaceOnUse" x="193" y="178" width="130" height="148">
<path d="M255.096 179.317L196.701 212.993C194.926 213.96 193.797 215.893 193.797 217.988V285.502C193.797 287.597 194.926 289.369 196.701 290.497L255.257 324.335C257.032 325.301 259.129 325.301 260.903 324.335L319.46 290.497C321.235 289.53 322.364 287.597 322.364 285.502V217.988C322.364 215.893 321.235 214.121 319.46 212.993L260.903 179.156C259.129 178.189 256.871 178.189 255.096 179.317Z" fill="white"/>
</mask>
<g mask="url(#mask0_587_2665)">
<path d="M258 177.705L193.797 214.765L258 251.664L322.203 214.765L258 177.705Z" fill="url(#paint1_radial_587_2665)"/>
<g opacity="0.16">
<path d="M258 179.478L318.976 214.604L258 249.892L197.023 214.765L258 179.478ZM258 177.705L193.797 214.765L258 251.826L322.203 214.765L258 177.705Z" fill="url(#paint2_linear_587_2665)"/>
</g>
</g>
<mask id="mask1_587_2665" style="mask-type:luminance" maskUnits="userSpaceOnUse" x="193" y="178" width="130" height="148">
<path d="M255.096 179.317L196.701 212.993C194.926 213.96 193.797 215.893 193.797 217.988V285.502C193.797 287.597 194.926 289.369 196.701 290.497L255.257 324.335C257.032 325.301 259.129 325.301 260.903 324.335L319.46 290.497C321.235 289.53 322.364 287.597 322.364 285.502V217.988C322.364 215.893 321.235 214.121 319.46 212.993L260.903 179.156C259.129 178.189 256.871 178.189 255.096 179.317Z" fill="white"/>
</mask>
<g mask="url(#mask1_587_2665)">
<mask id="mask2_587_2665" style="mask-type:luminance" maskUnits="userSpaceOnUse" x="193" y="214" width="130" height="112">
<path d="M255.096 250.053L193.636 214.604V288.725L257.839 325.785L322.042 288.725V214.604L260.581 250.053C259.129 251.181 256.871 251.181 255.096 250.053Z" fill="white"/>
</mask>
<g mask="url(#mask2_587_2665)">
<path d="M258 325.785L193.797 288.725V214.766L258 251.665V325.785Z" fill="url(#paint3_radial_587_2665)"/>
<g opacity="0.16">
<path d="M195.41 217.505L256.387 252.631V323.046L195.41 287.919V217.505ZM193.797 214.766V288.886L258 325.946V251.826L193.797 214.766Z" fill="url(#paint4_linear_587_2665)"/>
</g>
</g>
<mask id="mask3_587_2665" style="mask-type:luminance" maskUnits="userSpaceOnUse" x="193" y="214" width="130" height="112">
<path d="M255.096 250.053L193.636 214.604V288.725L257.839 325.785L322.042 288.725V214.604L260.581 250.053C259.129 251.181 256.871 251.181 255.096 250.053Z" fill="white"/>
</mask>
<g mask="url(#mask3_587_2665)">
<path d="M258 325.785L322.203 288.725V214.766L258 251.665V325.785Z" fill="url(#paint5_radial_587_2665)"/>
<g opacity="0.16">
<path d="M320.59 217.505V287.919L259.613 323.046V252.631L320.59 217.505ZM322.203 214.766L258 251.826V325.946L322.203 288.886V214.766Z" fill="url(#paint6_linear_587_2665)"/>
</g>
</g>
</g>
<mask id="mask4_587_2665" style="mask-type:luminance" maskUnits="userSpaceOnUse" x="266" y="220" width="130" height="148">
<path d="M328.172 221.372L269.615 255.048C267.84 256.015 266.711 257.949 266.711 260.043V327.557C266.711 329.652 267.84 331.424 269.615 332.552L328.172 366.39C329.946 367.357 332.043 367.357 333.818 366.39L392.374 332.552C394.149 331.585 395.278 329.652 395.278 327.557V260.043C395.278 257.949 394.149 256.176 392.374 255.048L333.818 221.211C332.043 220.405 329.946 220.405 328.172 221.372Z" fill="white"/>
</mask>
<g mask="url(#mask4_587_2665)">
<path d="M331.075 219.76L266.711 256.821L331.075 293.881L395.278 256.821L331.075 219.76Z" fill="url(#paint7_radial_587_2665)"/>
<g opacity="0.16">
<path d="M331.075 221.533L392.052 256.66L331.075 291.786L270.098 256.66L331.075 221.533ZM331.075 219.76L266.872 256.821L331.075 293.881L395.278 256.821L331.075 219.76Z" fill="url(#paint8_linear_587_2665)"/>
</g>
</g>
<mask id="mask5_587_2665" style="mask-type:luminance" maskUnits="userSpaceOnUse" x="266" y="220" width="130" height="148">
<path d="M328.172 221.372L269.615 255.048C267.84 256.015 266.711 257.949 266.711 260.043V327.557C266.711 329.652 267.84 331.424 269.615 332.552L328.172 366.39C329.946 367.357 332.043 367.357 333.818 366.39L392.374 332.552C394.149 331.585 395.278 329.652 395.278 327.557V260.043C395.278 257.949 394.149 256.176 392.374 255.048L333.818 221.211C332.043 220.405 329.946 220.405 328.172 221.372Z" fill="white"/>
</mask>
<g mask="url(#mask5_587_2665)">
<mask id="mask6_587_2665" style="mask-type:luminance" maskUnits="userSpaceOnUse" x="266" y="256" width="130" height="113">
<path d="M328.172 292.27L266.711 256.821V330.941L330.914 368.001L395.117 330.941V256.821L333.656 292.27C332.043 293.236 329.946 293.236 328.172 292.27Z" fill="white"/>
</mask>
<g mask="url(#mask6_587_2665)">
<path d="M331.075 368.001L266.711 330.941V256.821L331.075 293.881V368.001Z" fill="url(#paint9_radial_587_2665)"/>
<g opacity="0.16">
<path d="M268.324 259.56L329.301 294.687V365.101L268.324 329.974V259.56ZM266.711 256.821V330.941L330.914 368.001V293.881L266.711 256.821Z" fill="url(#paint10_linear_587_2665)"/>
</g>
</g>
<mask id="mask7_587_2665" style="mask-type:luminance" maskUnits="userSpaceOnUse" x="266" y="256" width="130" height="113">
<path d="M328.172 292.27L266.711 256.821V330.941L330.914 368.001L395.117 330.941V256.821L333.656 292.27C332.043 293.236 329.946 293.236 328.172 292.27Z" fill="white"/>
</mask>
<g mask="url(#mask7_587_2665)">
<path d="M331.075 368.001L395.278 330.941V256.821L331.075 293.881V368.001Z" fill="url(#paint11_radial_587_2665)"/>
<g opacity="0.16">
<path d="M393.665 259.56V329.974L332.688 365.101V294.848L393.665 259.56ZM395.278 256.821L331.075 293.881V368.001L395.278 330.941V256.821Z" fill="url(#paint12_linear_587_2665)"/>
</g>
</g>
</g>
<mask id="mask8_587_2665" style="mask-type:luminance" maskUnits="userSpaceOnUse" x="120" y="220" width="130" height="148">
<path d="M182.182 221.372L123.625 255.048C121.851 256.015 120.722 257.949 120.722 260.043V327.557C120.722 329.652 121.851 331.424 123.625 332.552L182.182 366.39C183.957 367.357 186.054 367.357 187.828 366.39L246.385 332.552C248.16 331.585 249.289 329.652 249.289 327.557V260.043C249.289 257.949 248.16 256.176 246.385 255.048L187.828 221.211C186.054 220.405 183.957 220.405 182.182 221.372Z" fill="white"/>
</mask>
<g mask="url(#mask8_587_2665)">
<path d="M185.086 219.76L120.722 256.821L185.086 293.881L249.289 256.821L185.086 219.76Z" fill="url(#paint13_radial_587_2665)"/>
<g opacity="0.16">
<path d="M185.086 221.533L246.062 256.66L185.086 291.786L124.109 256.66L185.086 221.533ZM185.086 219.76L120.883 256.821L185.086 293.881L249.289 256.821L185.086 219.76Z" fill="url(#paint14_linear_587_2665)"/>
</g>
</g>
<mask id="mask9_587_2665" style="mask-type:luminance" maskUnits="userSpaceOnUse" x="120" y="220" width="130" height="148">
<path d="M182.182 221.372L123.625 255.048C121.851 256.015 120.722 257.949 120.722 260.043V327.557C120.722 329.652 121.851 331.424 123.625 332.552L182.182 366.39C183.957 367.357 186.054 367.357 187.828 366.39L246.385 332.552C248.16 331.585 249.289 329.652 249.289 327.557V260.043C249.289 257.949 248.16 256.176 246.385 255.048L187.828 221.211C186.054 220.405 183.957 220.405 182.182 221.372Z" fill="white"/>
</mask>
<g mask="url(#mask9_587_2665)">
<mask id="mask10_587_2665" style="mask-type:luminance" maskUnits="userSpaceOnUse" x="120" y="256" width="130" height="113">
<path d="M182.182 292.27L120.722 256.821V330.941L184.925 368.001L249.128 330.941V256.821L187.667 292.27C186.054 293.236 183.957 293.236 182.182 292.27Z" fill="white"/>
</mask>
<g mask="url(#mask10_587_2665)">
<path d="M185.086 368.001L120.722 330.941V256.821L185.086 293.881V368.001Z" fill="url(#paint15_radial_587_2665)"/>
<g opacity="0.16">
<path d="M122.335 259.56L183.473 294.848V365.262L122.496 330.135V259.56M120.722 256.821V330.941L184.925 368.001V293.881L120.722 256.821Z" fill="url(#paint16_linear_587_2665)"/>
</g>
</g>
<mask id="mask11_587_2665" style="mask-type:luminance" maskUnits="userSpaceOnUse" x="120" y="256" width="130" height="113">
<path d="M182.182 292.27L120.722 256.821V330.941L184.925 368.001L249.128 330.941V256.821L187.667 292.27C186.054 293.236 183.957 293.236 182.182 292.27Z" fill="white"/>
</mask>
<g mask="url(#mask11_587_2665)">
<path d="M185.086 368.001L249.289 330.941V256.821L185.086 293.881V368.001Z" fill="url(#paint17_radial_587_2665)"/>
<g opacity="0.16">
<path d="M247.676 259.56V329.974L186.699 365.101V294.848L247.676 259.56ZM249.289 256.821L185.086 293.881V368.001L249.289 330.941V256.821Z" fill="url(#paint18_linear_587_2665)"/>
</g>
</g>
</g>
<mask id="mask12_587_2665" style="mask-type:luminance" maskUnits="userSpaceOnUse" x="193" y="262" width="130" height="148">
<path d="M255.096 263.427L196.701 297.265C194.926 298.232 193.797 300.165 193.797 302.26V369.774C193.797 371.868 194.926 373.641 196.701 374.769L255.257 408.606C257.032 409.573 259.129 409.573 260.903 408.606L319.46 374.769C321.235 373.802 322.364 371.868 322.364 369.774V302.26C322.364 300.165 321.235 298.393 319.46 297.265L260.903 263.427C259.129 262.46 256.871 262.46 255.096 263.427Z" fill="white"/>
</mask>
<g mask="url(#mask12_587_2665)">
<path d="M258 261.816L193.797 298.876L258 335.936L322.203 298.876L258 261.816Z" fill="url(#paint19_radial_587_2665)"/>
<g opacity="0.16">
<path d="M258 263.749L318.976 298.876L258 334.164L197.023 299.037L258 263.749ZM258 261.816L193.797 298.876L258 335.936L322.203 298.876L258 261.816Z" fill="url(#paint20_linear_587_2665)"/>
</g>
</g>
<mask id="mask13_587_2665" style="mask-type:luminance" maskUnits="userSpaceOnUse" x="193" y="262" width="130" height="148">
<path d="M255.096 263.427L196.701 297.265C194.926 298.232 193.797 300.165 193.797 302.26V369.774C193.797 371.868 194.926 373.641 196.701 374.769L255.257 408.606C257.032 409.573 259.129 409.573 260.903 408.606L319.46 374.769C321.235 373.802 322.364 371.868 322.364 369.774V302.26C322.364 300.165 321.235 298.393 319.46 297.265L260.903 263.427C259.129 262.46 256.871 262.46 255.096 263.427Z" fill="white"/>
</mask>
<g mask="url(#mask13_587_2665)">
<mask id="mask14_587_2665" style="mask-type:luminance" maskUnits="userSpaceOnUse" x="193" y="298" width="130" height="113">
<path d="M255.096 334.325L193.636 298.876V372.996L257.839 410.056L322.042 372.996V298.876L260.581 334.325C259.129 335.292 256.871 335.292 255.096 334.325Z" fill="white"/>
</mask>
<g mask="url(#mask14_587_2665)">
<path d="M258 410.056L193.797 372.996V298.876L258 335.936V410.056Z" fill="url(#paint21_radial_587_2665)"/>
<g opacity="0.16">
<path d="M195.41 301.615L256.387 336.742V407.156L195.41 372.029V301.615ZM193.797 298.876V372.996L258 410.056V335.936L193.797 298.876Z" fill="url(#paint22_linear_587_2665)"/>
</g>
</g>
<mask id="mask15_587_2665" style="mask-type:luminance" maskUnits="userSpaceOnUse" x="193" y="298" width="130" height="113">
<path d="M255.096 334.325L193.636 298.876V372.996L257.839 410.056L322.042 372.996V298.876L260.581 334.325C259.129 335.292 256.871 335.292 255.096 334.325Z" fill="white"/>
</mask>
<g mask="url(#mask15_587_2665)">
<path d="M258 410.056L322.203 372.996V298.876L258 335.936V410.056Z" fill="url(#paint23_radial_587_2665)"/>
<g opacity="0.16">
<path d="M320.59 301.615V372.029L259.613 407.317V336.903L320.59 301.615ZM322.203 298.876L258 335.936V410.056L322.203 372.996V298.876Z" fill="url(#paint24_linear_587_2665)"/>
</g>
</g>
</g>
<mask id="mask16_587_2665" style="mask-type:luminance" maskUnits="userSpaceOnUse" x="193" y="94" width="130" height="147">
<path d="M255.096 95.0452L196.701 128.883C194.926 129.849 193.797 131.783 193.797 133.878V201.392C193.797 203.486 194.926 205.259 196.701 206.387L255.257 240.224C257.032 241.191 259.129 241.191 260.903 240.224L319.46 206.387C321.235 205.42 322.364 203.486 322.364 201.392V133.717C322.364 131.622 321.235 129.849 319.46 128.722L260.903 95.0452C259.129 94.0784 256.871 94.0784 255.096 95.0452Z" fill="white"/>
</mask>
<g mask="url(#mask16_587_2665)">
<path d="M258 93.4338L193.797 130.494L258 167.554L322.203 130.494L258 93.4338Z" fill="url(#paint25_radial_587_2665)"/>
<g opacity="0.16">
<path d="M258 95.3674L318.976 130.494L258 165.621L197.023 130.494L258 95.3674ZM258 93.4338L193.797 130.494L258 167.554L322.203 130.494L258 93.4338Z" fill="url(#paint26_linear_587_2665)"/>
</g>
</g>
<mask id="mask17_587_2665" style="mask-type:luminance" maskUnits="userSpaceOnUse" x="193" y="94" width="130" height="147">
<path d="M255.096 95.0452L196.701 128.883C194.926 129.849 193.797 131.783 193.797 133.878V201.392C193.797 203.486 194.926 205.259 196.701 206.387L255.257 240.224C257.032 241.191 259.129 241.191 260.903 240.224L319.46 206.387C321.235 205.42 322.364 203.486 322.364 201.392V133.717C322.364 131.622 321.235 129.849 319.46 128.722L260.903 95.0452C259.129 94.0784 256.871 94.0784 255.096 95.0452Z" fill="white"/>
</mask>
<g mask="url(#mask17_587_2665)">
<mask id="mask18_587_2665" style="mask-type:luminance" maskUnits="userSpaceOnUse" x="193" y="130" width="130" height="112">
<path d="M255.096 165.943L193.797 130.494V204.614L258 241.674L322.203 204.614V130.494L260.742 165.943C259.129 166.91 256.871 166.91 255.096 165.943Z" fill="white"/>
</mask>
<g mask="url(#mask18_587_2665)">
<path d="M258 241.674L193.797 204.614V130.494L258 167.554V241.674Z" fill="url(#paint27_radial_587_2665)"/>
<g opacity="0.16">
<path d="M195.41 133.233L256.387 168.521V238.935L195.41 203.647V133.233ZM193.797 130.494V204.614L258 241.674V167.554L193.797 130.494Z" fill="url(#paint28_linear_587_2665)"/>
</g>
</g>
<mask id="mask19_587_2665" style="mask-type:luminance" maskUnits="userSpaceOnUse" x="193" y="130" width="130" height="112">
<path d="M255.096 165.943L193.797 130.494V204.614L258 241.674L322.203 204.614V130.494L260.742 165.943C259.129 166.91 256.871 166.91 255.096 165.943Z" fill="white"/>
</mask>
<g mask="url(#mask19_587_2665)">
<path d="M258 241.674L322.203 204.614V130.494L258 167.554V241.674Z" fill="url(#paint29_radial_587_2665)"/>
<g opacity="0.16">
<path d="M320.59 133.233V203.647L259.613 238.774V168.521L320.59 133.233ZM322.203 130.494L258 167.554V241.674L322.203 204.614V130.494Z" fill="url(#paint30_linear_587_2665)"/>
</g>
</g>
</g>
<mask id="mask20_587_2665" style="mask-type:luminance" maskUnits="userSpaceOnUse" x="266" y="136" width="130" height="148">
<path d="M328.172 137.262L269.615 170.938C267.84 171.905 266.711 173.838 266.711 175.933V243.447C266.711 245.542 267.84 247.314 269.615 248.442L328.172 282.279C329.946 283.246 332.043 283.246 333.818 282.279L392.374 248.442C394.149 247.475 395.278 245.542 395.278 243.447V175.933C395.278 173.838 394.149 172.066 392.374 170.938L333.818 137.1C332.043 136.134 329.946 136.134 328.172 137.262Z" fill="white"/>
</mask>
<g mask="url(#mask20_587_2665)">
<path d="M331.075 135.489L266.711 172.549L331.075 209.609L395.278 172.549L331.075 135.489Z" fill="url(#paint31_radial_587_2665)"/>
<g opacity="0.16">
<path d="M331.075 137.423L392.052 172.549L331.075 207.837L270.098 172.71L331.075 137.423ZM331.075 135.489L266.872 172.549L331.075 209.609L395.278 172.549L331.075 135.489Z" fill="url(#paint32_linear_587_2665)"/>
</g>
</g>
<mask id="mask21_587_2665" style="mask-type:luminance" maskUnits="userSpaceOnUse" x="266" y="136" width="130" height="148">
<path d="M328.172 137.262L269.615 170.938C267.84 171.905 266.711 173.838 266.711 175.933V243.447C266.711 245.542 267.84 247.314 269.615 248.442L328.172 282.279C329.946 283.246 332.043 283.246 333.818 282.279L392.374 248.442C394.149 247.475 395.278 245.542 395.278 243.447V175.933C395.278 173.838 394.149 172.066 392.374 170.938L333.818 137.1C332.043 136.134 329.946 136.134 328.172 137.262Z" fill="white"/>
</mask>
<g mask="url(#mask21_587_2665)">
<mask id="mask22_587_2665" style="mask-type:luminance" maskUnits="userSpaceOnUse" x="266" y="172" width="130" height="112">
<path d="M328.172 207.998L266.711 172.549V246.67L330.914 283.73L395.117 246.67V172.549L333.656 207.998C332.043 208.965 329.946 208.965 328.172 207.998Z" fill="white"/>
</mask>
<g mask="url(#mask22_587_2665)">
<path d="M331.075 283.73L266.711 246.67V172.549L331.075 209.609V283.73Z" fill="url(#paint33_radial_587_2665)"/>
<g opacity="0.16">
<path d="M268.324 175.45L329.301 210.576V280.991L268.324 245.864V175.45ZM266.711 172.549V246.67L330.914 283.73V209.609L266.711 172.549Z" fill="url(#paint34_linear_587_2665)"/>
</g>
</g>
<mask id="mask23_587_2665" style="mask-type:luminance" maskUnits="userSpaceOnUse" x="266" y="172" width="130" height="112">
<path d="M328.172 207.998L266.711 172.549V246.67L330.914 283.73L395.117 246.67V172.549L333.656 207.998C332.043 208.965 329.946 208.965 328.172 207.998Z" fill="white"/>
</mask>
<g mask="url(#mask23_587_2665)">
<path d="M331.075 283.73L395.278 246.67V172.549L331.075 209.609V283.73Z" fill="url(#paint35_radial_587_2665)"/>
<g opacity="0.16">
<path d="M393.665 175.45V245.864L332.688 280.991V210.576L393.665 175.45ZM395.278 172.549L331.075 209.609V283.73L395.278 246.67V172.549Z" fill="url(#paint36_linear_587_2665)"/>
</g>
</g>
</g>
<mask id="mask24_587_2665" style="mask-type:luminance" maskUnits="userSpaceOnUse" x="120" y="136" width="130" height="148">
<path d="M182.182 137.262L123.625 170.938C121.851 171.905 120.722 173.838 120.722 175.933V243.447C120.722 245.542 121.851 247.314 123.625 248.442L182.182 282.279C183.957 283.246 186.054 283.246 187.828 282.279L246.385 248.442C248.16 247.475 249.289 245.542 249.289 243.447V175.933C249.289 173.838 248.16 172.066 246.385 170.938L187.828 137.1C186.054 136.134 183.957 136.134 182.182 137.262Z" fill="white"/>
</mask>
<g mask="url(#mask24_587_2665)">
<path d="M185.086 135.489L120.722 172.549L185.086 209.609L249.289 172.549L185.086 135.489Z" fill="url(#paint37_radial_587_2665)"/>
<g opacity="0.16">
<path d="M185.086 137.423L246.062 172.549L185.086 207.837L123.948 172.549L185.086 137.423ZM185.086 135.489L120.883 172.549L185.086 209.609L249.289 172.549L185.086 135.489Z" fill="url(#paint38_linear_587_2665)"/>
</g>
</g>
<mask id="mask25_587_2665" style="mask-type:luminance" maskUnits="userSpaceOnUse" x="120" y="136" width="130" height="148">
<path d="M182.182 137.262L123.625 170.938C121.851 171.905 120.722 173.838 120.722 175.933V243.447C120.722 245.542 121.851 247.314 123.625 248.442L182.182 282.279C183.957 283.246 186.054 283.246 187.828 282.279L246.385 248.442C248.16 247.475 249.289 245.542 249.289 243.447V175.933C249.289 173.838 248.16 172.066 246.385 170.938L187.828 137.1C186.054 136.134 183.957 136.134 182.182 137.262Z" fill="white"/>
</mask>
<g mask="url(#mask25_587_2665)">
<mask id="mask26_587_2665" style="mask-type:luminance" maskUnits="userSpaceOnUse" x="120" y="172" width="130" height="112">
<path d="M182.182 207.998L120.722 172.549V246.67L184.925 283.73L249.128 246.67V172.549L187.667 207.998C186.054 208.965 183.957 208.965 182.182 207.998Z" fill="white"/>
</mask>
<g mask="url(#mask26_587_2665)">
<path d="M185.086 283.73L120.722 246.67V172.549L185.086 209.609V283.73Z" fill="url(#paint39_radial_587_2665)"/>
<g opacity="0.16">
<path d="M122.335 175.45L183.311 210.576V280.991L122.335 245.703V175.45ZM120.722 172.549V246.67L184.925 283.73V209.609L120.722 172.549Z" fill="url(#paint40_linear_587_2665)"/>
</g>
</g>
<mask id="mask27_587_2665" style="mask-type:luminance" maskUnits="userSpaceOnUse" x="120" y="172" width="130" height="112">
<path d="M182.182 207.998L120.722 172.549V246.67L184.925 283.73L249.128 246.67V172.549L187.667 207.998C186.054 208.965 183.957 208.965 182.182 207.998Z" fill="white"/>
</mask>
<g mask="url(#mask27_587_2665)">
<path d="M185.086 283.73L249.289 246.67V172.549L185.086 209.609V283.73Z" fill="url(#paint41_radial_587_2665)"/>
<g opacity="0.16">
<path d="M247.676 175.45V245.864L186.699 280.991V210.576L247.676 175.45ZM249.289 172.549L185.086 209.609V283.73L249.289 246.67V172.549Z" fill="url(#paint42_linear_587_2665)"/>
</g>
</g>
</g>
<mask id="mask28_587_2665" style="mask-type:luminance" maskUnits="userSpaceOnUse" x="185" y="168" width="146" height="168">
<path d="M254.774 169.488L188.312 207.837C186.376 208.965 185.086 211.06 185.086 213.477V290.175C185.086 292.431 186.376 294.687 188.312 295.815L254.774 334.164C256.709 335.292 259.29 335.292 261.226 334.164L327.687 295.815C329.623 294.687 330.914 292.592 330.914 290.175V213.315C330.914 211.06 329.623 208.804 327.687 207.676L261.226 169.488C259.29 168.199 256.709 168.199 254.774 169.488Z" fill="white"/>
</mask>
<g mask="url(#mask28_587_2665)">
<path d="M258 167.554L185.086 209.609L258 251.665L331.075 209.609L258 167.554Z" fill="url(#paint43_radial_587_2665)"/>
<g opacity="0.16">
<path d="M258 169.327L327.849 209.609L258 249.892L188.151 209.609L258 169.327ZM258 167.554L185.086 209.609L258 251.665L331.075 209.609L258 167.554Z" fill="url(#paint44_linear_587_2665)"/>
</g>
</g>
</g>
<defs>
<radialGradient id="paint0_radial_587_2665" cx="0" cy="0" r="1" gradientUnits="userSpaceOnUse" gradientTransform="translate(258.014 324.952) scale(180.457 180.252)">
<stop offset="0.0107527" stop-color="#A4B1C5"/>
<stop offset="0.0956677" stop-color="#909DB4" stop-opacity="0.9142"/>
<stop offset="0.2926" stop-color="#687492" stop-opacity="0.7151"/>
<stop offset="0.4858" stop-color="#495478" stop-opacity="0.5198"/>
<stop offset="0.6715" stop-color="#323D64" stop-opacity="0.3321"/>
<stop offset="0.8466" stop-color="#253059" stop-opacity="0.1551"/>
<stop offset="1" stop-color="#202B55" stop-opacity="0"/>
</radialGradient>
<radialGradient id="paint1_radial_587_2665" cx="0" cy="0" r="1" gradientUnits="userSpaceOnUse" gradientTransform="translate(258.558 178.284) scale(79.2677 79.1779)">
<stop stop-color="#5F7495"/>
<stop offset="0.3347" stop-color="#647899"/>
<stop offset="0.7157" stop-color="#7185A3"/>
<stop offset="0.9892" stop-color="#8092AE"/>
</radialGradient>
<linearGradient id="paint2_linear_587_2665" x1="258.014" y1="251.737" x2="258.014" y2="177.641" gradientUnits="userSpaceOnUse">
<stop offset="0.2427"/>
<stop offset="1" stop-color="white" stop-opacity="0.9"/>
</linearGradient>
<radialGradient id="paint3_radial_587_2665" cx="0" cy="0" r="1" gradientUnits="userSpaceOnUse" gradientTransform="translate(226.165 215.654) scale(93.5446 93.4386)">
<stop stop-color="#5F7495"/>
<stop offset="0.3347" stop-color="#647899"/>
<stop offset="0.7157" stop-color="#7185A3"/>
<stop offset="0.9892" stop-color="#8092AE"/>
</radialGradient>
<linearGradient id="paint4_linear_587_2665" x1="225.893" y1="325.834" x2="225.893" y2="214.689" gradientUnits="userSpaceOnUse">
<stop offset="0.2427"/>
<stop offset="1" stop-color="white" stop-opacity="0.9"/>
</linearGradient>
<radialGradient id="paint5_radial_587_2665" cx="0" cy="0" r="1" gradientUnits="userSpaceOnUse" gradientTransform="translate(290.407 215.654) scale(93.5446 93.4386)">
<stop stop-color="#5F7495"/>
<stop offset="0.3347" stop-color="#647899"/>
<stop offset="0.7157" stop-color="#7185A3"/>
<stop offset="0.9892" stop-color="#8092AE"/>
</radialGradient>
<linearGradient id="paint6_linear_587_2665" x1="290.135" y1="325.834" x2="290.135" y2="214.689" gradientUnits="userSpaceOnUse">
<stop offset="0.2427"/>
<stop offset="1" stop-color="white" stop-opacity="0.9"/>
</linearGradient>
<radialGradient id="paint7_radial_587_2665" cx="0" cy="0" r="1" gradientUnits="userSpaceOnUse" gradientTransform="translate(331.561 220.39) scale(79.2677 79.1779)">
<stop stop-color="#5F7495"/>
<stop offset="0.3347" stop-color="#647899"/>
<stop offset="0.7157" stop-color="#7185A3"/>
<stop offset="0.9892" stop-color="#8092AE"/>
</radialGradient>
<linearGradient id="paint8_linear_587_2665" x1="331.016" y1="293.844" x2="331.016" y2="219.747" gradientUnits="userSpaceOnUse">
<stop offset="0.2427"/>
<stop offset="1" stop-color="white" stop-opacity="0.9"/>
</linearGradient>
<radialGradient id="paint9_radial_587_2665" cx="0" cy="0" r="1" gradientUnits="userSpaceOnUse" gradientTransform="translate(299.167 257.76) scale(93.5446 93.4386)">
<stop stop-color="#5F7495"/>
<stop offset="0.3347" stop-color="#647899"/>
<stop offset="0.7157" stop-color="#7185A3"/>
<stop offset="0.9892" stop-color="#8092AE"/>
</radialGradient>
<linearGradient id="paint10_linear_587_2665" x1="298.895" y1="367.94" x2="298.895" y2="256.796" gradientUnits="userSpaceOnUse">
<stop offset="0.2427"/>
<stop offset="1" stop-color="white" stop-opacity="0.9"/>
</linearGradient>
<radialGradient id="paint11_radial_587_2665" cx="0" cy="0" r="1" gradientUnits="userSpaceOnUse" gradientTransform="translate(363.41 257.76) scale(93.5446 93.4386)">
<stop offset="0.0107527" stop-color="#8C9CB6"/>
<stop offset="1" stop-color="#8C9CB6"/>
</radialGradient>
<linearGradient id="paint12_linear_587_2665" x1="363.137" y1="367.94" x2="363.137" y2="256.796" gradientUnits="userSpaceOnUse">
<stop offset="0.2427"/>
<stop offset="1" stop-color="white" stop-opacity="0.9"/>
</linearGradient>
<radialGradient id="paint13_radial_587_2665" cx="0" cy="0" r="1" gradientUnits="userSpaceOnUse" gradientTransform="translate(185.556 220.39) scale(79.2677 79.1779)">
<stop stop-color="#5F7495"/>
<stop offset="0.3347" stop-color="#647899"/>
<stop offset="0.7157" stop-color="#7185A3"/>
<stop offset="0.9892" stop-color="#8092AE"/>
</radialGradient>
<linearGradient id="paint14_linear_587_2665" x1="185.011" y1="293.844" x2="185.011" y2="219.747" gradientUnits="userSpaceOnUse">
<stop offset="0.2427"/>
<stop offset="1" stop-color="white" stop-opacity="0.9"/>
</linearGradient>
<radialGradient id="paint15_radial_587_2665" cx="0" cy="0" r="1" gradientUnits="userSpaceOnUse" gradientTransform="translate(153.163 257.76) scale(93.5446 93.4386)">
<stop offset="0.0107527" stop-color="#8C9CB6"/>
<stop offset="1" stop-color="#8C9CB6"/>
</radialGradient>
<linearGradient id="paint16_linear_587_2665" x1="152.89" y1="367.94" x2="152.89" y2="256.796" gradientUnits="userSpaceOnUse">
<stop offset="0.2427"/>
<stop offset="1" stop-color="white" stop-opacity="0.9"/>
</linearGradient>
<radialGradient id="paint17_radial_587_2665" cx="0" cy="0" r="1" gradientUnits="userSpaceOnUse" gradientTransform="translate(217.405 257.76) scale(93.5446 93.4386)">
<stop stop-color="#5F7495"/>
<stop offset="0.3347" stop-color="#647899"/>
<stop offset="0.7157" stop-color="#7185A3"/>
<stop offset="0.9892" stop-color="#8092AE"/>
</radialGradient>
<linearGradient id="paint18_linear_587_2665" x1="217.132" y1="367.94" x2="217.132" y2="256.796" gradientUnits="userSpaceOnUse">
<stop offset="0.2427"/>
<stop offset="1" stop-color="white" stop-opacity="0.9"/>
</linearGradient>
<radialGradient id="paint19_radial_587_2665" cx="0" cy="0" r="1" gradientUnits="userSpaceOnUse" gradientTransform="translate(260.38 266.119) scale(90.8989 90.7959)">
<stop stop-color="#5F7495"/>
<stop offset="0.3347" stop-color="#647899"/>
<stop offset="0.7157" stop-color="#7185A3"/>
<stop offset="0.9892" stop-color="#8092AE"/>
</radialGradient>
<linearGradient id="paint20_linear_587_2665" x1="258.014" y1="335.945" x2="258.014" y2="261.849" gradientUnits="userSpaceOnUse">
<stop offset="0.2427"/>
<stop offset="1" stop-color="white" stop-opacity="0.9"/>
</linearGradient>
<radialGradient id="paint21_radial_587_2665" cx="0" cy="0" r="1" gradientUnits="userSpaceOnUse" gradientTransform="translate(226.165 299.861) scale(93.5446 93.4386)">
<stop offset="0.0107527" stop-color="#8C9CB6"/>
<stop offset="1" stop-color="#8C9CB6"/>
</radialGradient>
<linearGradient id="paint22_linear_587_2665" x1="225.893" y1="410.041" x2="225.893" y2="298.897" gradientUnits="userSpaceOnUse">
<stop offset="0.2427"/>
<stop offset="1" stop-color="white" stop-opacity="0.9"/>
</linearGradient>
<radialGradient id="paint23_radial_587_2665" cx="0" cy="0" r="1" gradientUnits="userSpaceOnUse" gradientTransform="translate(290.407 299.861) scale(93.5446 93.4386)">
<stop offset="0.0107527" stop-color="#8C9CB6"/>
<stop offset="1" stop-color="#8C9CB6"/>
</radialGradient>
<linearGradient id="paint24_linear_587_2665" x1="290.135" y1="410.041" x2="290.135" y2="298.897" gradientUnits="userSpaceOnUse">
<stop offset="0.2427"/>
<stop offset="1" stop-color="white" stop-opacity="0.9"/>
</linearGradient>
<radialGradient id="paint25_radial_587_2665" cx="0" cy="0" r="1" gradientUnits="userSpaceOnUse" gradientTransform="translate(258.558 94.0769) scale(79.2677 79.1779)">
<stop stop-color="#BCC6D4"/>
<stop offset="0.2717" stop-color="#B7C2D1"/>
<stop offset="0.5815" stop-color="#AAB6C8"/>
<stop offset="0.9089" stop-color="#93A2BA"/>
<stop offset="0.9892" stop-color="#8C9CB6"/>
</radialGradient>
<linearGradient id="paint26_linear_587_2665" x1="258.014" y1="167.53" x2="258.014" y2="93.4338" gradientUnits="userSpaceOnUse">
<stop offset="0.2427"/>
<stop offset="1" stop-color="white" stop-opacity="0.9"/>
</linearGradient>
<radialGradient id="paint27_radial_587_2665" cx="0" cy="0" r="1" gradientUnits="userSpaceOnUse" gradientTransform="translate(205.817 258.062) scale(189.962 189.747)">
<stop stop-color="#5F7495"/>
<stop offset="0.3347" stop-color="#647899"/>
<stop offset="0.7157" stop-color="#7185A3"/>
<stop offset="0.9892" stop-color="#8092AE"/>
</radialGradient>
<linearGradient id="paint28_linear_587_2665" x1="225.893" y1="241.626" x2="225.893" y2="130.482" gradientUnits="userSpaceOnUse">
<stop offset="0.2427"/>
<stop offset="1" stop-color="white" stop-opacity="0.9"/>
</linearGradient>
<radialGradient id="paint29_radial_587_2665" cx="0" cy="0" r="1" gradientUnits="userSpaceOnUse" gradientTransform="translate(270.059 258.062) scale(189.962 189.747)">
<stop stop-color="#5F7495"/>
<stop offset="0.3347" stop-color="#647899"/>
<stop offset="0.7157" stop-color="#7185A3"/>
<stop offset="0.9892" stop-color="#8092AE"/>
</radialGradient>
<linearGradient id="paint30_linear_587_2665" x1="290.135" y1="241.626" x2="290.135" y2="130.482" gradientUnits="userSpaceOnUse">
<stop offset="0.2427"/>
<stop offset="1" stop-color="white" stop-opacity="0.9"/>
</linearGradient>
<radialGradient id="paint31_radial_587_2665" cx="0" cy="0" r="1" gradientUnits="userSpaceOnUse" gradientTransform="translate(331.561 136.183) scale(79.2677 79.1779)">
<stop stop-color="#BCC6D4"/>
<stop offset="0.2717" stop-color="#B7C2D1"/>
<stop offset="0.5815" stop-color="#AAB6C8"/>
<stop offset="0.9089" stop-color="#93A2BA"/>
<stop offset="0.9892" stop-color="#8C9CB6"/>
</radialGradient>
<linearGradient id="paint32_linear_587_2665" x1="331.016" y1="209.636" x2="331.016" y2="135.54" gradientUnits="userSpaceOnUse">
<stop offset="0.2427"/>
<stop offset="1" stop-color="white" stop-opacity="0.9"/>
</linearGradient>
<radialGradient id="paint33_radial_587_2665" cx="0" cy="0" r="1" gradientUnits="userSpaceOnUse" gradientTransform="translate(292.136 217.243) scale(105.848 105.728)">
<stop stop-color="#5F7495"/>
<stop offset="0.3347" stop-color="#647899"/>
<stop offset="0.7157" stop-color="#7185A3"/>
<stop offset="0.9892" stop-color="#8092AE"/>
</radialGradient>
<linearGradient id="paint34_linear_587_2665" x1="273.562" y1="253.465" x2="324.171" y2="202.799" gradientUnits="userSpaceOnUse">
<stop offset="0.2427"/>
<stop offset="1" stop-color="white" stop-opacity="0.9"/>
</linearGradient>
<radialGradient id="paint35_radial_587_2665" cx="0" cy="0" r="1" gradientUnits="userSpaceOnUse" gradientTransform="translate(363.41 173.553) scale(93.5446 93.4386)">
<stop offset="0.0107527" stop-color="#8C9CB6"/>
<stop offset="1" stop-color="#8C9CB6"/>
</radialGradient>
<linearGradient id="paint36_linear_587_2665" x1="363.137" y1="283.733" x2="363.137" y2="172.588" gradientUnits="userSpaceOnUse">
<stop offset="0.2427"/>
<stop offset="1" stop-color="white" stop-opacity="0.9"/>
</linearGradient>
<radialGradient id="paint37_radial_587_2665" cx="0" cy="0" r="1" gradientUnits="userSpaceOnUse" gradientTransform="translate(185.556 136.183) scale(79.2677 79.1779)">
<stop stop-color="#BCC6D4"/>
<stop offset="0.2717" stop-color="#B7C2D1"/>
<stop offset="0.5815" stop-color="#AAB6C8"/>
<stop offset="0.9089" stop-color="#93A2BA"/>
<stop offset="0.9892" stop-color="#8C9CB6"/>
</radialGradient>
<linearGradient id="paint38_linear_587_2665" x1="185.011" y1="209.636" x2="185.011" y2="135.54" gradientUnits="userSpaceOnUse">
<stop offset="0.2427"/>
<stop offset="1" stop-color="white" stop-opacity="0.9"/>
</linearGradient>
<radialGradient id="paint39_radial_587_2665" cx="0" cy="0" r="1" gradientUnits="userSpaceOnUse" gradientTransform="translate(153.163 173.553) scale(93.5446 93.4386)">
<stop offset="0.0107527" stop-color="#8C9CB6"/>
<stop offset="1" stop-color="#8C9CB6"/>
</radialGradient>
<linearGradient id="paint40_linear_587_2665" x1="152.89" y1="283.733" x2="152.89" y2="172.588" gradientUnits="userSpaceOnUse">
<stop offset="0.2427"/>
<stop offset="1" stop-color="white" stop-opacity="0.9"/>
</linearGradient>
<radialGradient id="paint41_radial_587_2665" cx="0" cy="0" r="1" gradientUnits="userSpaceOnUse" gradientTransform="translate(210.373 217.243) scale(105.848 105.728)">
<stop stop-color="#5F7495"/>
<stop offset="0.3347" stop-color="#647899"/>
<stop offset="0.7157" stop-color="#7185A3"/>
<stop offset="0.9892" stop-color="#8092AE"/>
</radialGradient>
<linearGradient id="paint42_linear_587_2665" x1="249.253" y1="246.684" x2="185.048" y2="209.573" gradientUnits="userSpaceOnUse">
<stop offset="0.2427"/>
<stop offset="1" stop-color="white" stop-opacity="0.9"/>
</linearGradient>
<radialGradient id="paint43_radial_587_2665" cx="0" cy="0" r="1" gradientUnits="userSpaceOnUse" gradientTransform="translate(258.633 168.268) scale(90.077 89.9749)">
<stop stop-color="#76BFFF"/>
<stop offset="0.1647" stop-color="#71BDFF"/>
<stop offset="0.3526" stop-color="#64B6FF"/>
<stop offset="0.5519" stop-color="#4DACFF"/>
<stop offset="0.7591" stop-color="#2D9DFF"/>
<stop offset="0.9706" stop-color="#048AFF"/>
<stop offset="0.9892" stop-color="#0088FF"/>
</radialGradient>
<linearGradient id="paint44_linear_587_2665" x1="258.014" y1="251.738" x2="258.014" y2="167.537" gradientUnits="userSpaceOnUse">
<stop offset="0.2427"/>
<stop offset="1" stop-color="white" stop-opacity="0.9"/>
</linearGradient>
<clipPath id="clip0_587_2665">
<rect width="442" height="359" fill="white" transform="translate(37 76.5)"/>
</clipPath>
</defs>
</svg>
