<svg width="35" height="36" viewBox="0 0 35 36" fill="none" xmlns="http://www.w3.org/2000/svg">
<path d="M18.5426 9.09783L20.1161 13.9969C20.2473 14.3941 20.6032 14.6589 21.0153 14.6589H26.1106C27.0285 14.6589 27.4031 15.8317 26.6726 16.3802L22.5514 19.4067C22.2142 19.6526 22.0831 20.0687 22.2142 20.4659L23.7877 25.365C24.0687 26.2351 23.0759 26.9728 22.3453 26.4243L18.2241 23.3978C17.887 23.1519 17.4561 23.1519 17.1189 23.3978L12.9977 26.4243C12.2672 26.9728 11.2743 26.2351 11.5553 25.365L13.1289 20.4659C13.26 20.0687 13.1289 19.6526 12.7917 19.4067L8.67049 16.3802C7.93991 15.8317 8.31457 14.6589 9.23247 14.6589H14.3277C14.7399 14.6589 15.0958 14.3941 15.2269 13.9969L16.8005 9.09783C17.0814 8.22773 18.3178 8.22773 18.5988 9.09783H18.5426Z" stroke="url(#paint0_linear_112_911)" stroke-width="1.5" stroke-miterlimit="10"/>
<path d="M17.5819 34.4855C26.7398 34.4855 34.1637 27.0294 34.1637 17.8318C34.1637 8.63426 26.7398 1.17816 17.5819 1.17816C8.42396 1.17816 1 8.63426 1 17.8318C1 27.0294 8.42396 34.4855 17.5819 34.4855Z" stroke="url(#paint1_linear_112_911)" stroke-width="1.5" stroke-miterlimit="10"/>
<defs>
<linearGradient id="paint0_linear_112_911" x1="8.28491" y1="17.5291" x2="27.0581" y2="17.5291" gradientUnits="userSpaceOnUse">
<stop stop-color="#522EFF"/>
<stop offset="1" stop-color="#00D0C6"/>
</linearGradient>
<linearGradient id="paint1_linear_112_911" x1="1" y1="17.8318" x2="34.1637" y2="17.8318" gradientUnits="userSpaceOnUse">
<stop stop-color="#522EFF"/>
<stop offset="1" stop-color="#00D0C6"/>
</linearGradient>
</defs>
</svg>
