<svg xmlns="http://www.w3.org/2000/svg" width="60" height="61" fill="none" viewBox="0 0 60 61"><path stroke="#00D0C6" stroke-miterlimit="10" stroke-width="3.5" d="m32.697 15.407 2.664 8.293a1.6 1.6 0 0 0 1.522 1.121h8.626c1.554 0 2.188 1.985.951 2.914l-6.977 5.123a1.57 1.57 0 0 0-.57 1.794l2.664 8.293c.475 1.473-1.206 2.722-2.442 1.793l-6.977-5.123a1.56 1.56 0 0 0-1.87 0l-6.977 5.123c-1.237.929-2.918-.32-2.442-1.793l2.663-8.294c.223-.672 0-1.376-.57-1.793l-6.977-5.123c-1.237-.929-.602-2.914.951-2.914h8.626a1.6 1.6 0 0 0 1.522-1.12l2.664-8.294c.476-1.473 2.569-1.473 3.044 0z"/><path stroke="#00D0C6" stroke-miterlimit="10" stroke-width="3.5" d="M30.07 58.385c15.504 0 28.072-12.622 28.072-28.193C58.142 14.622 45.574 2 30.07 2S2 14.622 2 30.192s12.568 28.193 28.07 28.193Z"/></svg>