<svg xmlns="http://www.w3.org/2000/svg" width="166" height="59" fill="none" viewBox="0 0 166 59"><path fill="#00D0C6" d="M54.224 51.267q-1.066 0-2.041-.3-.975-.311-1.547-.792l.585-1.313q.546.429 1.352.715.806.285 1.65.286.715 0 1.158-.156.441-.156.65-.416a1 1 0 0 0 .208-.611q0-.417-.3-.663-.299-.26-.78-.403-.467-.157-1.052-.286a21 21 0 0 1-1.157-.3 5.5 5.5 0 0 1-1.053-.454 2.36 2.36 0 0 1-.767-.754q-.3-.468-.3-1.196 0-.741.39-1.352.404-.625 1.21-.988.819-.378 2.067-.377.819 0 1.625.208a4.7 4.7 0 0 1 1.404.598l-.533 1.313a4.8 4.8 0 0 0-1.261-.533 4.6 4.6 0 0 0-1.248-.182q-.703 0-1.144.169-.43.169-.637.442-.195.273-.195.624a.87.87 0 0 0 .286.676q.299.246.767.39.48.142 1.066.286.584.13 1.157.299.584.169 1.053.442.48.273.767.74.299.469.299 1.184 0 .728-.403 1.352-.39.61-1.21.988-.818.363-2.066.364m7.334-.13v-7.67H58.54v-1.43h7.722v1.43h-3.016v7.67zm4.49 0 4.095-9.1h1.664l4.108 9.1h-1.768l-3.523-8.203h.676l-3.51 8.203zm1.885-2.106.455-1.326h4.914l.455 1.326zm10.907-.04-.09-2.001 4.77-4.953h1.898l-3.965 4.212-.936 1.027zm-1.508 2.146v-9.1h1.69v9.1zm6.344 0-3.484-4.147 1.118-1.235 4.342 5.382zm3.387 0v-9.1h1.69v9.1zm4.411 0v-9.1h1.391l5.707 7.007h-.689v-7.007h1.677v9.1h-1.39l-5.708-7.007h.69v7.007zm15.036.13a5.5 5.5 0 0 1-1.963-.338 4.8 4.8 0 0 1-1.547-.975 4.5 4.5 0 0 1-1.027-1.495 4.7 4.7 0 0 1-.364-1.872q0-1.014.364-1.872A4.3 4.3 0 0 1 103 43.233q.675-.637 1.573-.975a5.3 5.3 0 0 1 1.963-.351q1.156 0 2.08.377.936.377 1.573 1.105l-1.066 1.04a3.4 3.4 0 0 0-1.157-.78 3.4 3.4 0 0 0-1.352-.26q-.715 0-1.326.234a3.1 3.1 0 0 0-1.053.663 3 3 0 0 0-.689 1.014q-.234.585-.234 1.287 0 .69.234 1.274.246.585.689 1.027.441.429 1.04.663.597.234 1.326.234.675 0 1.3-.208.636-.222 1.209-.728l.962 1.26a5.1 5.1 0 0 1-1.664.872 6.5 6.5 0 0 1-1.898.286m1.963-1.378v-3.406h1.599v3.627z"/><path fill="#fff" d="M53.932 26.981h11.464v3.39H48L59.713 9.883h-9.819V6.495h15.75zM73.171 6.495V30.37h-3.589V6.495zm9.321 0v20.486h7.028v3.39H78.903V6.494zm14.056 0v20.486h7.028v3.39H92.96V6.494zm14.007 0V30.37h-3.589V6.495zm30.056 24.324h-4.536l-1.894-1.944c-1.944 1.296-4.287 1.944-6.63 1.944-3.09 0-6.13-1.147-8.423-3.24-2.642-2.243-4.087-5.583-3.988-9.022-.099-3.39 1.296-6.68 3.788-9.022a12.5 12.5 0 0 1 8.673-3.49c2.991 0 5.882 1.097 8.125 3.091q4.336 3.665 4.336 9.57c0 3.09-1.246 6.032-3.389 8.225zm-9.919-9.92 3.439 3.49c1.545-1.595 2.343-3.739 2.293-5.932.05-2.392-.848-4.735-2.542-6.43-3.489-3.439-9.172-3.439-12.661 0a9.23 9.23 0 0 0-2.492 6.53 8.57 8.57 0 0 0 2.592 6.33c1.595 1.595 3.788 2.542 6.081 2.542 1.495.05 2.941-.349 4.237-1.047l-5.583-5.483zm27.913 3.69h-10.218l-2.642 5.782h-3.888L153.67 5l11.365 25.37h-3.938zm-1.446-3.39-3.539-8.124-3.738 8.124z"/><path fill="url(#a)" d="M27.065 22.928 8.474 32.099l18.591 8.823V48L0 35.19v-7.028l18.841-9.221L0 10.018V2.891l27.065 12.86z"/><path fill="url(#b)" d="M0 2.891 7.178 0l27.065 12.81-7.178 2.94z"/><path fill="url(#c)" d="m27.065 22.928 7.178-2.891V12.81l-7.178 2.94z"/><path fill="url(#d)" d="M27.065 40.922V26.717l7.178-3.29v21.682L27.065 48z"/><defs><linearGradient id="a" x1="27.075" x2="4.481" y1="48.289" y2="10.223" gradientUnits="userSpaceOnUse"><stop stop-color="#fff"/><stop offset=".22" stop-color="#fff" stop-opacity=".96"/><stop offset=".59" stop-color="#fff" stop-opacity=".85"/><stop offset="1" stop-color="#fff" stop-opacity=".7"/></linearGradient><linearGradient id="b" x1="-2.607" x2="29.602" y1=".807" y2="12.351" gradientUnits="userSpaceOnUse"><stop stop-color="#fff"/><stop offset=".22" stop-color="#fff" stop-opacity=".96"/><stop offset=".59" stop-color="#fff" stop-opacity=".85"/><stop offset="1" stop-color="#fff" stop-opacity=".7"/></linearGradient><linearGradient id="c" x1="31.507" x2="30.355" y1="6.335" y2="21.926" gradientUnits="userSpaceOnUse"><stop stop-color="#fff"/><stop offset=".22" stop-color="#fff" stop-opacity=".96"/><stop offset=".59" stop-color="#fff" stop-opacity=".85"/><stop offset="1" stop-color="#fff" stop-opacity=".7"/></linearGradient><linearGradient id="d" x1="30.564" x2="30.729" y1="21.867" y2="47.94" gradientUnits="userSpaceOnUse"><stop stop-color="#fff"/><stop offset=".22" stop-color="#fff" stop-opacity=".96"/><stop offset=".59" stop-color="#fff" stop-opacity=".85"/><stop offset="1" stop-color="#fff" stop-opacity=".7"/></linearGradient></defs></svg>