<svg width="11" height="13" viewBox="0 0 11 13" fill="none" xmlns="http://www.w3.org/2000/svg">
<path d="M10 11.2402C10 11.8354 7.98533 12.3185 5.5 12.3185C3.01467 12.3185 1 11.8379 1 11.2402" stroke="#B9B7B7" stroke-width="0.748383" stroke-miterlimit="10"/>
<path d="M10 8.18555C10 8.78073 7.98533 9.26385 5.5 9.26385C3.01467 9.26385 1 8.78073 1 8.18555" stroke="#B9B7B7" stroke-width="0.748383" stroke-miterlimit="10"/>
<path d="M1 11.2387V8.18555" stroke="#B9B7B7" stroke-width="0.748383" stroke-miterlimit="10"/>
<path d="M10.0002 11.2387V8.18555" stroke="#B9B7B7" stroke-width="0.748383" stroke-miterlimit="10"/>
<path d="M10 8.18555C10 8.78073 7.98533 9.26385 5.5 9.26385C3.01467 9.26385 1 8.78073 1 8.18555" stroke="#B9B7B7" stroke-width="0.748383" stroke-miterlimit="10"/>
<path d="M10 5.13477C10 5.72995 7.98533 6.21307 5.5 6.21307C3.01467 6.21307 1 5.72995 1 5.13477" stroke="#B9B7B7" stroke-width="0.748383" stroke-miterlimit="10"/>
<path d="M1 8.18789V5.13477" stroke="#B9B7B7" stroke-width="0.748383" stroke-miterlimit="10"/>
<path d="M10.0002 8.18789V5.13477" stroke="#B9B7B7" stroke-width="0.748383" stroke-miterlimit="10"/>
<path d="M10 5.13477C10 5.72995 7.98533 6.21307 5.5 6.21307C3.01467 6.21307 1 5.72995 1 5.13477" stroke="#B9B7B7" stroke-width="0.748383" stroke-miterlimit="10"/>
<path d="M5.5 3.15661C7.98528 3.15661 10 2.67384 10 2.07831C10 1.48277 7.98528 1 5.5 1C3.01472 1 1 1.48277 1 2.07831C1 2.67384 3.01472 3.15661 5.5 3.15661Z" stroke="#B9B7B7" stroke-width="0.748383" stroke-miterlimit="10"/>
<path d="M1 5.13374V2.07812" stroke="#B9B7B7" stroke-width="0.748383" stroke-miterlimit="10"/>
<path d="M10.0002 5.13374V2.07812" stroke="#B9B7B7" stroke-width="0.748383" stroke-miterlimit="10"/>
</svg>
