<svg xmlns="http://www.w3.org/2000/svg" width="10" height="10" fill="none" viewBox="0 0 10 10"><path stroke="#fff" stroke-miterlimit="10" stroke-width=".713" d="m4.629 1.287-.67 2.158a.405.405 0 0 1-.384.291H1.404c-.391 0-.55.517-.24.758l1.757 1.333c.143.108.2.291.143.466l-.67 2.157c-.12.384.303.708.614.467l1.757-1.333a.38.38 0 0 1 .47 0l1.757 1.333c.311.241.734-.083.614-.467l-.67-2.157a.42.42 0 0 1 .144-.466l1.756-1.333c.311-.241.151-.758-.24-.758H6.425a.405.405 0 0 1-.383-.291l-.67-2.158a.4.4 0 0 0-.767 0z"/></svg>