<?xml version="1.0" encoding="UTF-8"?>
<svg xmlns="http://www.w3.org/2000/svg" version="1.1" viewBox="0 0 2079.9 637.4">
  <defs>
    <style>
      .cls-1 {
        fill: #d8d8d8;
      }

      .cls-2 {
        fill: #fff;
      }

      .cls-3 {
        fill: #afafaf;
      }
    </style>
  </defs>
  <!-- Generator: Adobe Illustrator 28.6.0, SVG Export Plug-In . SVG Version: 1.2.0 Build 709)  -->
  <g>
    <g id="Layer_1">
      <g>
        <g>
          <path class="cls-2" d="M695.3,451.3h142.7v42.2h-216.3l146.2-255h-122.1v-42.2h195.7l-146.2,255Z"/>
          <path class="cls-2" d="M935.1,196.2v297.2h-44.6V196.2h44.6Z"/>
          <path class="cls-2" d="M1051.8,196.2v255h87.3v42.2h-132.4V196.2h45.1Z"/>
          <path class="cls-2" d="M1226.5,196.2v255h87.3v42.2h-131.9V196.2h44.6Z"/>
          <path class="cls-2" d="M1401.1,196.2v297.2h-44.6V196.2h44.6Z"/>
          <path class="cls-2" d="M1775.3,498.9h-56.4l-23.5-24c-24.4,16.1-53.1,24.4-82.4,24-38.8.4-76.3-14-105-40.2-32.8-28-51.2-69.2-50-112.3-1.1-42.4,16.1-83.3,47.1-112.3,57.9-56.1,149.2-58.5,209.9-5.4,35.8,30.4,54,70.6,54,119.7s-14.2,72.6-42.7,102.5l49,48.1ZM1651.7,375.8l43.2,43.2c18.9-19.7,29.2-46.2,28.4-73.6.9-30.1-10.6-59.2-31.9-80.4-43.6-43.2-113.9-43.2-157.4,0-20.6,21.6-30.9,48.6-30.9,81.4-.9,29.6,10.6,58.3,31.9,79,20.2,20.1,47.5,31.4,76,31.4,18.5.3,36.8-4.3,53-13.2l-70.1-67.7h57.9Z"/>
          <path class="cls-2" d="M1999.9,421.4h-127.5l-32.9,72.1h-48.6l147.1-315.9,141.7,315.9h-49l-30.9-72.1ZM1981.3,379.2l-44.1-101-46.1,101h90.2Z"/>
        </g>
        <g>
          <polygon class="cls-2" points="359.3 304.7 112.7 426.2 359.3 542.9 359.3 637.4 0 467.1 0 374.1 250 251 0 132.9 0 38.4 359.3 208.7 359.3 304.7"/>
          <polygon class="cls-1" points="0 38.4 95 0 454.3 170.3 359.3 208.7 0 38.4"/>
          <polygon class="cls-3" points="359.3 304.7 454.3 266.3 454.3 170.3 359.3 208.7 359.3 304.7"/>
          <polygon class="cls-3" points="359.3 542.9 359.3 354.4 454.3 310.6 454.3 599 359.3 637.4 359.3 542.9"/>
        </g>
      </g>
    </g>
  </g>
</svg>